<?xml version="1.0" encoding="utf-8"?>
<!-- Generator: Adobe Illustrator 24.0.1, SVG Export Plug-In . SVG Version: 6.00 Build 0)  -->
<svg version="1.1" id="Layer_1" xmlns="http://www.w3.org/2000/svg" xmlns:xlink="http://www.w3.org/1999/xlink" x="0px" y="0px"
	 viewBox="0 0 110 27" style="enable-background:new 0 0 110 27;" xml:space="preserve">
<style type="text/css">
	.st0{fill:#0052A0;}
	.st1{fill:#FFFFFF;}
</style>
<g>
	<path class="st0" d="M11.78,22.84c-0.07,0.31-0.22,0.55-0.42,0.73c-0.21,0.18-0.45,0.3-0.73,0.37c-0.28,0.07-0.58,0.08-0.9,0.04
		C9.4,23.93,9.1,23.84,8.81,23.7c-0.29-0.14-0.54-0.33-0.77-0.56c-0.22-0.23-0.38-0.5-0.48-0.81C7.5,22.06,7.4,21.65,7.29,21.1
		c-0.11-0.55-0.24-1.17-0.37-1.88c-0.14-0.71-0.29-1.47-0.45-2.29c-0.16-0.82-0.33-1.63-0.51-2.44c-0.18-0.81-0.35-1.58-0.53-2.33
		c-0.18-0.74-0.36-1.4-0.54-1.98C4.69,9.61,4.52,9.15,4.34,8.81C4.17,8.47,4,8.3,3.84,8.3c-0.23,0-0.48,0.09-0.73,0.26
		c-0.25,0.17-0.5,0.38-0.74,0.62c-0.24,0.24-0.48,0.5-0.72,0.77C1.42,10.22,1.2,10.46,1,10.66c-0.19,0.21-0.36,0.35-0.51,0.41
		c-0.15,0.06-0.26,0.06-0.34,0.02C0.07,11.04,0.02,10.94,0,10.8c-0.02-0.14,0.02-0.31,0.1-0.49c0.19-0.27,0.41-0.57,0.66-0.9
		c0.25-0.33,0.52-0.68,0.8-1.03c0.28-0.35,0.57-0.69,0.88-1.03c0.3-0.33,0.62-0.63,0.94-0.89C3.71,6.2,4.03,5.99,4.35,5.83
		c0.32-0.16,0.64-0.24,0.96-0.24c0.51,0,0.99,0.23,1.45,0.69c0.46,0.46,0.88,1.07,1.28,1.83c0.39,0.75,0.76,1.62,1.1,2.58
		c0.34,0.97,0.65,1.96,0.92,2.97c0.28,1.02,0.52,2.01,0.73,2.98c0.21,0.97,0.39,1.85,0.53,2.62c0.1-0.72,0.2-1.53,0.33-2.41
		c0.12-0.88,0.26-1.8,0.41-2.76c0.15-0.96,0.32-1.92,0.5-2.9c0.18-0.98,0.37-1.92,0.58-2.84c0.21-0.91,0.43-1.77,0.65-2.57
		c0.23-0.8,0.46-1.49,0.71-2.09c0.24-0.6,0.5-1.06,0.77-1.4c0.27-0.34,0.54-0.51,0.81-0.51c0.37,0,0.74,0.22,1.09,0.66
		c0.36,0.44,0.71,1.03,1.05,1.75c0.35,0.73,0.68,1.55,1,2.48s0.62,1.87,0.92,2.84c0.29,0.97,0.57,1.91,0.84,2.84
		c0.27,0.92,0.51,1.75,0.74,2.48c0.23,0.73,0.44,1.31,0.62,1.75c0.19,0.44,0.35,0.66,0.5,0.66c0.14,0,0.27-0.13,0.39-0.4
		c0.12-0.27,0.25-0.62,0.37-1.06c0.13-0.44,0.26-0.94,0.41-1.5c0.14-0.56,0.3-1.13,0.48-1.71c0.18-0.58,0.37-1.16,0.59-1.71
		c0.22-0.56,0.47-1.06,0.75-1.5c0.28-0.44,0.6-0.79,0.94-1.06c0.35-0.27,0.74-0.4,1.17-0.4c0.32,0,0.61,0.19,0.88,0.56
		c0.27,0.37,0.52,0.86,0.75,1.47c0.23,0.61,0.44,1.3,0.65,2.07c0.2,0.78,0.4,1.57,0.58,2.38c0.19,0.81,0.36,1.6,0.53,2.38
		c0.17,0.78,0.35,1.47,0.53,2.07c0.18,0.61,0.36,1.09,0.55,1.47c0.19,0.37,0.39,0.56,0.6,0.56c0.39,0,0.78-0.06,1.16-0.18
		c0.38-0.12,0.73-0.26,1.07-0.43c0.33-0.17,0.64-0.35,0.92-0.54c0.28-0.19,0.53-0.36,0.74-0.51c0.16-0.14,0.32-0.21,0.48-0.22
		c0.16-0.01,0.28,0.03,0.37,0.11c0.08,0.08,0.12,0.2,0.1,0.36c-0.02,0.16-0.12,0.34-0.31,0.54c-0.24,0.26-0.56,0.54-0.96,0.86
		c-0.39,0.32-0.85,0.62-1.36,0.91c-0.51,0.29-1.07,0.53-1.68,0.72c-0.61,0.19-1.26,0.29-1.94,0.29c-0.49,0-0.92-0.15-1.28-0.46
		c-0.37-0.31-0.69-0.71-0.96-1.21c-0.27-0.5-0.51-1.07-0.71-1.71c-0.2-0.64-0.38-1.29-0.53-1.96c-0.15-0.67-0.29-1.32-0.41-1.96
		c-0.12-0.64-0.24-1.21-0.36-1.71c-0.12-0.5-0.24-0.9-0.38-1.21c-0.14-0.31-0.29-0.46-0.46-0.46c-0.17,0-0.33,0.15-0.49,0.46
		c-0.15,0.31-0.31,0.71-0.46,1.21c-0.15,0.5-0.31,1.07-0.47,1.71c-0.16,0.64-0.32,1.29-0.49,1.96c-0.17,0.67-0.35,1.32-0.53,1.96
		c-0.19,0.64-0.39,1.21-0.6,1.71c-0.21,0.5-0.44,0.9-0.68,1.21c-0.24,0.31-0.5,0.46-0.77,0.46c-0.52,0-0.99-0.2-1.42-0.59
		c-0.43-0.39-0.81-0.91-1.16-1.56c-0.35-0.65-0.67-1.38-0.96-2.21c-0.29-0.82-0.55-1.67-0.8-2.53c-0.24-0.86-0.47-1.7-0.67-2.53
		c-0.2-0.82-0.4-1.56-0.58-2.21c-0.19-0.65-0.37-1.17-0.54-1.56C15.71,9.2,15.53,9,15.35,9c-0.26,0-0.47,0.22-0.65,0.67
		c-0.18,0.45-0.35,1.04-0.49,1.79c-0.15,0.74-0.29,1.6-0.44,2.57c-0.14,0.97-0.3,1.96-0.48,2.99c-0.18,1.03-0.38,2.05-0.61,3.06
		c-0.23,1.02-0.51,1.95-0.84,2.8L11.78,22.84z"/>
</g>
<g>
	<path class="st1" d="M45.46,22.25l0.38-2.87c0.07-0.51,0.19-1.29,0.29-1.8H46.1c-0.24,0.54-0.54,1.17-0.83,1.71l-1.58,2.93h-0.51
		l-0.39-2.86c-0.08-0.62-0.13-1.23-0.17-1.78h-0.02c-0.12,0.49-0.28,1.29-0.41,1.8l-0.73,2.87h-0.62l1.38-5.32h0.84l0.42,3.05
		c0.06,0.45,0.12,0.93,0.13,1.33h0.02c0.17-0.39,0.39-0.87,0.62-1.31l1.65-3.07h0.85l-0.68,5.32H45.46z"/>
	<path class="st1" d="M47.58,22.25l0.73-3.82h0.66l-0.73,3.82H47.58z M48.43,17.36c0-0.25,0.2-0.44,0.43-0.44
		c0.24,0,0.39,0.17,0.39,0.41c-0.01,0.26-0.19,0.44-0.44,0.44C48.58,17.77,48.43,17.6,48.43,17.36z"/>
	<path class="st1" d="M52.31,22.25c0-0.23,0.04-0.59,0.09-0.99h-0.02c-0.42,0.79-0.94,1.07-1.48,1.07c-0.67,0-1.1-0.54-1.1-1.26
		c0-1.33,0.98-2.73,2.64-2.73c0.36,0,0.77,0.06,1.03,0.15l-0.39,1.99c-0.13,0.66-0.18,1.34-0.17,1.77H52.31z M52.74,18.92
		c-0.09-0.02-0.24-0.06-0.46-0.06c-0.99,0-1.79,1.03-1.8,2.09c0,0.43,0.15,0.84,0.66,0.84c0.54,0,1.19-0.71,1.38-1.73L52.74,18.92z"
		/>
	<path class="st1" d="M54.29,22.25l0.51-2.71c0.08-0.43,0.13-0.8,0.17-1.11h0.58l-0.1,0.72h0.02c0.36-0.53,0.84-0.81,1.34-0.81
		c0.58,0,0.86,0.37,0.89,0.85c0.34-0.55,0.83-0.84,1.4-0.85c0.44,0,0.92,0.28,0.92,1c0,0.18-0.02,0.43-0.06,0.65l-0.43,2.26h-0.64
		l0.41-2.2c0.03-0.14,0.06-0.34,0.06-0.5c0-0.4-0.15-0.66-0.58-0.66c-0.47,0-1.03,0.55-1.19,1.4l-0.37,1.96h-0.63l0.43-2.24
		c0.03-0.17,0.05-0.32,0.05-0.47c0-0.32-0.09-0.65-0.57-0.65c-0.48,0-1.07,0.63-1.22,1.44l-0.36,1.92H54.29z"/>
	<path class="st1" d="M61.07,22.25l0.73-3.82h0.66l-0.73,3.82H61.07z M61.92,17.36c0-0.25,0.2-0.44,0.43-0.44
		c0.24,0,0.39,0.17,0.39,0.41c-0.01,0.26-0.19,0.44-0.44,0.44C62.07,17.77,61.92,17.6,61.92,17.36z"/>
	<path class="st1" d="M66.95,17.5h-1.55l0.11-0.57h3.77l-0.11,0.57H67.6l-0.9,4.75h-0.66L66.95,17.5z"/>
	<path class="st1" d="M71.52,22.03c-0.28,0.17-0.75,0.3-1.26,0.3c-1.01,0-1.45-0.69-1.45-1.53c0-1.15,0.85-2.45,2.08-2.45
		c0.73,0,1.12,0.43,1.12,0.98c0,1-1.13,1.27-2.54,1.25c-0.03,0.17-0.01,0.52,0.08,0.73c0.15,0.34,0.46,0.51,0.85,0.51
		c0.45,0,0.79-0.14,1.03-0.27L71.52,22.03z M70.8,18.85c-0.62,0-1.09,0.61-1.25,1.21c1.03,0.01,1.83-0.13,1.83-0.72
		C71.38,19.03,71.14,18.85,70.8,18.85z"/>
	<path class="st1" d="M75.37,22.1c-0.2,0.09-0.59,0.23-1.1,0.23c-0.99,0-1.47-0.66-1.47-1.48c0-1.3,0.96-2.5,2.34-2.5
		c0.36,0,0.68,0.1,0.8,0.17l-0.19,0.52c-0.15-0.07-0.36-0.14-0.65-0.14c-0.99,0-1.62,0.98-1.62,1.88c0,0.62,0.32,1.02,0.95,1.02
		c0.39,0,0.69-0.12,0.88-0.21L75.37,22.1z"/>
	<path class="st1" d="M76.47,22.25l1.07-5.6h0.66l-0.47,2.46h0.02c0.32-0.47,0.79-0.77,1.37-0.77c0.43,0,0.95,0.27,0.95,1.03
		c0,0.21-0.02,0.45-0.06,0.65l-0.43,2.23H78.9l0.43-2.2c0.02-0.14,0.05-0.32,0.05-0.53c0-0.36-0.17-0.63-0.59-0.63
		c-0.51,0-1.14,0.59-1.3,1.45l-0.36,1.91H76.47z"/>
	<path class="st1" d="M81.08,22.25l0.51-2.71c0.09-0.43,0.13-0.8,0.18-1.11h0.58l-0.09,0.75h0.02c0.34-0.54,0.85-0.84,1.41-0.84
		c0.46,0,0.97,0.26,0.97,1.07c0,0.17-0.03,0.41-0.07,0.62l-0.43,2.23h-0.65l0.42-2.2c0.03-0.15,0.06-0.33,0.06-0.49
		c0-0.39-0.15-0.67-0.6-0.67c-0.47,0-1.13,0.56-1.3,1.51l-0.35,1.85H81.08z"/>
	<path class="st1" d="M89.35,19.94c0,1.18-0.84,2.4-2.12,2.4c-0.95,0-1.49-0.71-1.49-1.57c0-1.25,0.88-2.42,2.12-2.42
		C88.89,18.34,89.35,19.12,89.35,19.94z M86.42,20.74c0,0.62,0.34,1.07,0.9,1.07c0.77,0,1.36-0.99,1.36-1.89
		c0-0.44-0.21-1.07-0.89-1.07C86.97,18.86,86.41,19.86,86.42,20.74z"/>
	<path class="st1" d="M90.21,22.25l1.07-5.6h0.66l-1.07,5.6H90.21z"/>
	<path class="st1" d="M96.07,19.94c0,1.18-0.84,2.4-2.12,2.4c-0.95,0-1.49-0.71-1.49-1.57c0-1.25,0.88-2.42,2.12-2.42
		C95.61,18.34,96.07,19.12,96.07,19.94z M93.14,20.74c0,0.62,0.34,1.07,0.9,1.07c0.77,0,1.36-0.99,1.36-1.89
		c0-0.44-0.21-1.07-0.89-1.07C93.68,18.86,93.13,19.86,93.14,20.74z"/>
	<path class="st1" d="M96.98,23.12c0.23,0.14,0.61,0.25,1.01,0.25c0.64,0,1.14-0.33,1.37-1.37l0.13-0.57h-0.02
		c-0.33,0.54-0.8,0.81-1.33,0.81c-0.77,0-1.16-0.65-1.16-1.33c-0.01-1.29,0.95-2.58,2.42-2.58c0.44,0,0.92,0.13,1.22,0.27
		l-0.58,3.16c-0.16,0.8-0.37,1.37-0.77,1.7c-0.38,0.33-0.89,0.43-1.33,0.43c-0.47,0-0.9-0.11-1.14-0.27L96.98,23.12z M99.91,19
		c-0.12-0.06-0.36-0.13-0.63-0.13c-0.95,0-1.61,0.99-1.62,1.94c0,0.42,0.15,0.92,0.73,0.92c0.56,0,1.13-0.71,1.27-1.46L99.91,19z"/>
	<path class="st1" d="M102.31,18.43l0.38,2.06c0.09,0.43,0.13,0.72,0.17,1h0.02c0.1-0.24,0.21-0.51,0.41-0.93l0.97-2.13h0.69
		l-1.43,2.9c-0.41,0.83-0.8,1.5-1.32,2c-0.43,0.43-0.89,0.62-1.11,0.66l-0.16-0.56c0.17-0.06,0.44-0.17,0.7-0.37
		c0.25-0.2,0.53-0.51,0.73-0.88c0.03-0.06,0.03-0.11,0.02-0.17l-0.77-3.59H102.31z"/>
</g>
</svg>
