<?xml version="1.0" encoding="utf-8"?>
<!-- Generator: Adobe Illustrator 24.0.1, SVG Export Plug-In . SVG Version: 6.00 Build 0)  -->
<svg version="1.1" id="Layer_1" xmlns="http://www.w3.org/2000/svg" xmlns:xlink="http://www.w3.org/1999/xlink" x="0px" y="0px"
	 viewBox="0 0 110 27" style="enable-background:new 0 0 110 27;" xml:space="preserve">
<style type="text/css">
	.st0{fill:#0052A0;}
	.st1{fill:#575756;}
</style>
<g>
	<path class="st0" d="M9.28,20.09c-0.06,0.24-0.17,0.43-0.33,0.57c-0.16,0.14-0.36,0.23-0.58,0.29C8.15,21,7.91,21.01,7.66,20.98
		c-0.25-0.03-0.49-0.11-0.72-0.22c-0.23-0.11-0.43-0.26-0.6-0.44c-0.18-0.18-0.3-0.39-0.38-0.63c-0.06-0.22-0.13-0.54-0.22-0.97
		c-0.09-0.43-0.19-0.93-0.3-1.48c-0.11-0.56-0.23-1.16-0.36-1.8c-0.13-0.64-0.26-1.29-0.4-1.92c-0.14-0.64-0.28-1.25-0.42-1.83
		c-0.14-0.59-0.28-1.11-0.43-1.56C3.7,9.66,3.56,9.3,3.42,9.03c-0.14-0.27-0.27-0.4-0.4-0.4c-0.18,0-0.37,0.07-0.57,0.2
		c-0.2,0.13-0.39,0.3-0.58,0.49C1.68,9.52,1.49,9.72,1.3,9.93c-0.18,0.21-0.36,0.4-0.52,0.56c-0.15,0.17-0.28,0.27-0.4,0.32
		c-0.12,0.05-0.21,0.05-0.27,0.01C0.05,10.79,0.02,10.71,0,10.6c-0.01-0.11,0.01-0.24,0.08-0.38c0.15-0.21,0.32-0.45,0.52-0.71
		C0.8,9.24,1.01,8.97,1.23,8.7c0.22-0.28,0.45-0.55,0.69-0.81c0.24-0.26,0.49-0.5,0.74-0.7c0.26-0.21,0.51-0.37,0.76-0.5
		C3.68,6.56,3.93,6.5,4.18,6.5c0.4,0,0.78,0.18,1.14,0.55c0.36,0.36,0.7,0.84,1,1.44c0.31,0.59,0.6,1.27,0.87,2.04
		c0.27,0.76,0.51,1.54,0.73,2.34c0.22,0.8,0.41,1.58,0.57,2.35c0.16,0.77,0.3,1.46,0.42,2.07c0.08-0.57,0.16-1.2,0.26-1.9
		c0.1-0.7,0.21-1.42,0.33-2.17c0.12-0.75,0.25-1.52,0.4-2.29c0.14-0.77,0.3-1.52,0.46-2.24c0.16-0.72,0.33-1.39,0.52-2.02
		c0.18-0.63,0.37-1.18,0.56-1.65c0.19-0.47,0.39-0.84,0.6-1.11c0.21-0.27,0.42-0.4,0.64-0.4c0.29,0,0.58,0.17,0.86,0.52
		c0.28,0.35,0.56,0.81,0.83,1.38c0.27,0.57,0.53,1.22,0.79,1.95s0.49,1.47,0.72,2.24c0.23,0.76,0.45,1.51,0.66,2.24
		c0.21,0.73,0.4,1.38,0.58,1.95c0.18,0.57,0.34,1.03,0.49,1.38c0.15,0.35,0.28,0.52,0.4,0.52c0.11,0,0.21-0.1,0.31-0.31
		c0.1-0.21,0.19-0.49,0.3-0.84c0.1-0.35,0.21-0.74,0.32-1.18c0.11-0.44,0.24-0.89,0.38-1.35c0.14-0.46,0.29-0.91,0.46-1.35
		c0.17-0.44,0.37-0.83,0.59-1.18c0.22-0.35,0.47-0.63,0.74-0.84c0.27-0.21,0.58-0.31,0.92-0.31c0.25,0,0.48,0.15,0.7,0.44
		c0.21,0.29,0.41,0.68,0.59,1.16c0.18,0.48,0.35,1.02,0.51,1.63c0.16,0.61,0.31,1.24,0.46,1.87c0.15,0.64,0.29,1.26,0.42,1.87
		c0.13,0.61,0.27,1.16,0.41,1.63c0.14,0.48,0.29,0.86,0.43,1.16c0.15,0.29,0.3,0.44,0.47,0.44c0.31,0,0.61-0.05,0.91-0.14
		c0.3-0.09,0.58-0.21,0.84-0.34c0.26-0.13,0.51-0.28,0.73-0.43c0.22-0.15,0.42-0.28,0.58-0.4c0.13-0.11,0.25-0.17,0.38-0.17
		c0.13,0,0.22,0.03,0.29,0.09c0.07,0.06,0.09,0.16,0.08,0.28c-0.01,0.13-0.09,0.27-0.25,0.43c-0.19,0.2-0.44,0.43-0.75,0.68
		c-0.31,0.25-0.67,0.49-1.07,0.72c-0.4,0.23-0.84,0.41-1.33,0.57c-0.48,0.15-0.99,0.23-1.53,0.23c-0.39,0-0.72-0.12-1.01-0.36
		c-0.29-0.24-0.54-0.56-0.75-0.95c-0.21-0.39-0.4-0.84-0.56-1.34c-0.16-0.5-0.3-1.02-0.42-1.55c-0.12-0.53-0.23-1.04-0.33-1.55
		c-0.1-0.5-0.19-0.95-0.28-1.34c-0.09-0.39-0.19-0.71-0.3-0.95c-0.11-0.24-0.23-0.36-0.36-0.36c-0.13,0-0.26,0.12-0.38,0.36
		c-0.12,0.24-0.24,0.56-0.36,0.95c-0.12,0.39-0.24,0.84-0.37,1.34c-0.13,0.5-0.26,1.02-0.39,1.55c-0.13,0.53-0.27,1.04-0.42,1.55
		c-0.15,0.5-0.3,0.95-0.47,1.34c-0.17,0.39-0.35,0.71-0.53,0.95c-0.19,0.24-0.39,0.36-0.61,0.36c-0.41,0-0.78-0.15-1.12-0.46
		c-0.34-0.31-0.64-0.72-0.92-1.23c-0.28-0.51-0.53-1.09-0.75-1.74c-0.23-0.65-0.44-1.31-0.63-1.99c-0.19-0.68-0.37-1.34-0.53-1.99
		c-0.16-0.65-0.31-1.23-0.46-1.74c-0.15-0.51-0.29-0.92-0.43-1.23c-0.14-0.31-0.28-0.46-0.42-0.46c-0.2,0-0.37,0.18-0.52,0.53
		c-0.14,0.35-0.27,0.82-0.39,1.41c-0.12,0.59-0.23,1.26-0.35,2.02c-0.11,0.76-0.24,1.55-0.38,2.36c-0.14,0.81-0.3,1.61-0.48,2.41
		c-0.18,0.8-0.4,1.53-0.66,2.2L9.28,20.09z"/>
</g>
<g>
	<path class="st1" d="M37.3,18.78l0.45-3.38c0.08-0.59,0.22-1.51,0.34-2.12h-0.04c-0.29,0.63-0.63,1.37-0.97,2.01l-1.86,3.44h-0.59
		l-0.46-3.37c-0.09-0.72-0.16-1.45-0.19-2.09h-0.02c-0.14,0.58-0.33,1.52-0.48,2.12l-0.85,3.38h-0.72l1.62-6.25h0.98l0.49,3.59
		c0.06,0.53,0.14,1.09,0.15,1.56h0.03c0.19-0.46,0.46-1.02,0.73-1.54l1.94-3.61h1l-0.8,6.25H37.3z"/>
	<path class="st1" d="M39.79,18.78l0.86-4.49h0.77l-0.86,4.49H39.79z M40.79,13.04c0-0.3,0.23-0.52,0.51-0.52
		c0.28,0,0.45,0.2,0.45,0.48c-0.01,0.31-0.22,0.52-0.52,0.52C40.96,13.52,40.79,13.32,40.79,13.04z"/>
	<path class="st1" d="M45.35,18.78c0-0.27,0.05-0.7,0.1-1.16h-0.02c-0.49,0.93-1.1,1.26-1.74,1.26c-0.79,0-1.29-0.63-1.29-1.48
		c0-1.56,1.15-3.21,3.11-3.21c0.43,0,0.9,0.07,1.21,0.18l-0.45,2.34c-0.15,0.78-0.21,1.58-0.19,2.08H45.35z M45.85,14.87
		c-0.11-0.03-0.28-0.06-0.54-0.06c-1.16,0-2.11,1.22-2.12,2.46c0,0.5,0.18,0.99,0.77,0.99c0.64,0,1.4-0.84,1.62-2.03L45.85,14.87z"
		/>
	<path class="st1" d="M47.68,18.78l0.6-3.18c0.09-0.5,0.16-0.94,0.2-1.31h0.68l-0.12,0.84h0.03c0.42-0.62,0.98-0.95,1.58-0.95
		c0.69,0,1.01,0.44,1.05,1c0.4-0.65,0.97-0.99,1.65-1c0.52,0,1.09,0.33,1.09,1.18c0,0.21-0.03,0.51-0.07,0.76l-0.5,2.65h-0.75
		l0.48-2.59c0.04-0.17,0.06-0.4,0.06-0.58c0-0.47-0.18-0.78-0.68-0.78c-0.56,0-1.22,0.65-1.4,1.65l-0.44,2.3H50.4l0.5-2.64
		c0.04-0.19,0.06-0.37,0.06-0.55c0-0.38-0.1-0.77-0.67-0.77c-0.57,0-1.26,0.74-1.44,1.7l-0.42,2.25H47.68z"/>
	<path class="st1" d="M55.64,18.78l0.86-4.49h0.77l-0.86,4.49H55.64z M56.64,13.04c0-0.3,0.23-0.52,0.51-0.52
		c0.28,0,0.45,0.2,0.45,0.48c-0.01,0.31-0.22,0.52-0.52,0.52C56.82,13.52,56.64,13.32,56.64,13.04z"/>
	<path class="st1" d="M62.56,13.2h-1.83l0.13-0.67h4.44l-0.13,0.67h-1.84l-1.06,5.59H61.5L62.56,13.2z"/>
	<path class="st1" d="M67.94,18.52c-0.33,0.19-0.88,0.35-1.48,0.35c-1.19,0-1.71-0.81-1.71-1.8c0-1.35,1-2.89,2.45-2.89
		c0.85,0,1.32,0.51,1.32,1.15c0,1.18-1.33,1.49-2.99,1.47c-0.04,0.19-0.01,0.61,0.09,0.85c0.18,0.4,0.54,0.6,1,0.6
		c0.53,0,0.93-0.17,1.21-0.32L67.94,18.52z M67.08,14.79c-0.73,0-1.28,0.71-1.47,1.42c1.21,0.01,2.15-0.15,2.15-0.84
		C67.77,15,67.49,14.79,67.08,14.79z"/>
	<path class="st1" d="M72.46,18.61c-0.23,0.11-0.7,0.27-1.3,0.27c-1.16,0-1.73-0.78-1.73-1.74c0-1.53,1.13-2.94,2.75-2.94
		c0.42,0,0.8,0.12,0.94,0.19L72.89,15c-0.18-0.08-0.43-0.17-0.76-0.17c-1.17,0-1.9,1.15-1.9,2.21c0,0.72,0.38,1.2,1.11,1.2
		c0.45,0,0.81-0.14,1.04-0.25L72.46,18.61z"/>
	<path class="st1" d="M73.75,18.78l1.25-6.59h0.77l-0.56,2.9h0.02c0.38-0.55,0.93-0.9,1.61-0.9c0.51,0,1.11,0.32,1.11,1.21
		c0,0.24-0.03,0.53-0.07,0.76l-0.5,2.63h-0.77l0.5-2.59c0.03-0.17,0.06-0.37,0.06-0.62c0-0.42-0.19-0.74-0.7-0.74
		c-0.59,0-1.35,0.7-1.53,1.71l-0.42,2.25H73.75z"/>
	<path class="st1" d="M79.17,18.78l0.6-3.18c0.1-0.5,0.16-0.94,0.21-1.31h0.69l-0.11,0.88h0.02c0.4-0.63,1-0.98,1.66-0.98
		c0.54,0,1.14,0.31,1.14,1.25c0,0.19-0.04,0.48-0.08,0.72l-0.5,2.62h-0.77l0.49-2.59c0.04-0.18,0.06-0.39,0.06-0.58
		c0-0.45-0.18-0.79-0.71-0.79c-0.55,0-1.33,0.66-1.53,1.77l-0.41,2.18H79.17z"/>
	<path class="st1" d="M88.9,16.06c0,1.38-0.98,2.82-2.49,2.82c-1.12,0-1.75-0.84-1.75-1.85c0-1.48,1.03-2.85,2.49-2.85
		C88.36,14.19,88.9,15.11,88.9,16.06z M85.45,17.01c0,0.73,0.4,1.26,1.06,1.26c0.91,0,1.6-1.17,1.6-2.22c0-0.52-0.24-1.25-1.05-1.25
		C86.09,14.8,85.44,15.98,85.45,17.01z"/>
	<path class="st1" d="M89.91,18.78l1.25-6.59h0.77l-1.26,6.59H89.91z"/>
	<path class="st1" d="M96.79,16.06c0,1.38-0.98,2.82-2.49,2.82c-1.12,0-1.75-0.84-1.75-1.85c0-1.48,1.03-2.85,2.49-2.85
		C96.25,14.19,96.79,15.11,96.79,16.06z M93.35,17.01c0,0.73,0.4,1.26,1.06,1.26c0.91,0,1.6-1.17,1.6-2.22
		c0-0.52-0.24-1.25-1.05-1.25C93.99,14.8,93.34,15.98,93.35,17.01z"/>
	<path class="st1" d="M97.87,19.8c0.27,0.17,0.71,0.3,1.19,0.3c0.75,0,1.35-0.39,1.61-1.61l0.15-0.67h-0.03
		c-0.39,0.64-0.94,0.96-1.56,0.96c-0.9,0-1.36-0.76-1.36-1.56c-0.01-1.52,1.11-3.03,2.85-3.03c0.52,0,1.09,0.15,1.44,0.32
		l-0.69,3.71c-0.19,0.95-0.44,1.61-0.91,2c-0.45,0.39-1.05,0.5-1.57,0.5c-0.55,0-1.06-0.13-1.35-0.32L97.87,19.8z M101.31,14.96
		c-0.14-0.06-0.42-0.15-0.74-0.15c-1.12,0-1.89,1.17-1.9,2.28c0,0.49,0.18,1.08,0.86,1.08c0.66,0,1.33-0.84,1.49-1.72L101.31,14.96z
		"/>
	<path class="st1" d="M104.13,14.29l0.45,2.42c0.1,0.51,0.16,0.84,0.2,1.18h0.02c0.12-0.29,0.25-0.6,0.48-1.09l1.14-2.51h0.82
		l-1.68,3.41c-0.48,0.97-0.94,1.76-1.55,2.36c-0.5,0.51-1.05,0.72-1.31,0.78l-0.19-0.66c0.19-0.07,0.52-0.19,0.83-0.44
		c0.3-0.23,0.62-0.59,0.86-1.03c0.04-0.07,0.04-0.13,0.03-0.2l-0.9-4.22H104.13z"/>
</g>
</svg>
